<!DOCTYPE svg>
<svg width="900" height="800" xmlns="http://www.w3.org/2000/svg">
  <!-- Title -->
  <text x="450" y="30" text-anchor="middle" font-family="Arial" font-size="24" fill="#333">
    مخططات الدوائر الكهربائية / Electrical Circuit Diagrams
  </text>
  
  <!-- Circuit 1: Basic Solar Charging Circuit -->
  <g id="solar-charging-circuit" transform="translate(50, 80)">
    <text x="150" y="0" text-anchor="middle" font-family="Arial" font-size="16" font-weight="bold">
      دائرة شحن شمسية بسيطة / Basic Solar Charging
    </text>
    
    <!-- Solar Panel Symbol -->
    <g transform="translate(0, 30)">
      <rect x="0" y="0" width="60" height="40" fill="none" stroke="#000" stroke-width="2"/>
      <line x1="0" y1="20" x2="60" y2="20" stroke="#000" stroke-width="1"/>
      <line x1="20" y1="0" x2="20" y2="40" stroke="#000" stroke-width="1"/>
      <line x1="40" y1="0" x2="40" y2="40" stroke="#000" stroke-width="1"/>
      <text x="30" y="55" text-anchor="middle" font-family="Arial" font-size="10">PV</text>
      <text x="30" y="-10" text-anchor="middle" font-family="Arial" font-size="10">18V 5A</text>
      <!-- Terminals -->
      <circle cx="70" cy="10" r="3" fill="#ff0000"/>
      <text x="80" y="13" font-family="Arial" font-size="10" fill="#ff0000">+</text>
      <circle cx="70" cy="30" r="3" fill="#000000"/>
      <text x="80" y="33" font-family="Arial" font-size="10">-</text>
    </g>
    
    <!-- Diode -->
    <g transform="translate(100, 40)">
      <line x1="0" y1="0" x2="20" y2="0" stroke="#000" stroke-width="2"/>
      <path d="M 20 -8 L 20 8 L 35 0 Z" fill="#000"/>
      <line x1="35" y1="-8" x2="35" y2="8" stroke="#000" stroke-width="2"/>
      <line x1="35" y1="0" x2="50" y2="0" stroke="#000" stroke-width="2"/>
      <text x="25" y="-15" text-anchor="middle" font-family="Arial" font-size="10">D1</text>
      <text x="25" y="20" text-anchor="middle" font-family="Arial" font-size="8">1N5408</text>
    </g>
    
    <!-- Fuse -->
    <g transform="translate(170, 40)">
      <rect x="0" y="-5" width="30" height="10" fill="none" stroke="#000" stroke-width="2" rx="5"/>
      <text x="15" y="3" text-anchor="middle" font-family="Arial" font-size="8">10A</text>
      <text x="15" y="-15" text-anchor="middle" font-family="Arial" font-size="10">F1</text>
    </g>
    
    <!-- Charge Controller -->
    <g transform="translate(220, 20)">
      <rect x="0" y="0" width="80" height="60" fill="none" stroke="#000" stroke-width="2"/>
      <text x="40" y="30" text-anchor="middle" font-family="Arial" font-size="10">PWM</text>
      <text x="40" y="45" text-anchor="middle" font-family="Arial" font-size="10">Controller</text>
      <!-- Terminals -->
      <circle cx="-10" cy="20" r="3" fill="#ff0000"/>
      <circle cx="-10" cy="40" r="3" fill="#000000"/>
      <circle cx="90" cy="20" r="3" fill="#ff0000"/>
      <circle cx="90" cy="40" r="3" fill="#000000"/>
      <text x="-5" y="10" font-family="Arial" font-size="8">IN</text>
      <text x="70" y="10" font-family="Arial" font-size="8">OUT</text>
    </g>
    
    <!-- Battery -->
    <g transform="translate(340, 20)">
      <line x1="0" y1="20" x2="10" y2="20" stroke="#000" stroke-width="2"/>
      <line x1="10" y1="10" x2="10" y2="30" stroke="#000" stroke-width="4"/>
      <line x1="15" y1="15" x2="15" y2="25" stroke="#000" stroke-width="2"/>
      <line x1="20" y1="10" x2="20" y2="30" stroke="#000" stroke-width="4"/>
      <line x1="25" y1="15" x2="25" y2="25" stroke="#000" stroke-width="2"/>
      <line x1="30" y1="20" x2="40" y2="20" stroke="#000" stroke-width="2"/>
      <text x="20" y="50" text-anchor="middle" font-family="Arial" font-size="10">12V</text>
      <text x="20" y="65" text-anchor="middle" font-family="Arial" font-size="10">100Ah</text>
      <text x="10" y="5" font-family="Arial" font-size="10" fill="#ff0000">+</text>
      <text x="25" y="5" font-family="Arial" font-size="10">-</text>
    </g>
    
    <!-- Wiring -->
    <line x1="70" y1="40" x2="100" y2="40" stroke="#ff0000" stroke-width="2"/>
    <line x1="150" y1="40" x2="170" y2="40" stroke="#ff0000" stroke-width="2"/>
    <line x1="200" y1="40" x2="210" y2="40" stroke="#ff0000" stroke-width="2"/>
    <line x1="310" y1="40" x2="340" y2="40" stroke="#ff0000" stroke-width="2"/>
    <line x1="70" y1="60" x2="210" y2="60" stroke="#000000" stroke-width="2"/>
    <line x1="310" y1="60" x2="340" y2="60" stroke="#000000" stroke-width="2"/>
    <line x1="340" y1="40" x2="350" y2="40" stroke="#ff0000" stroke-width="2"/>
    <line x1="340" y1="60" x2="355" y2="60" stroke="#000000" stroke-width="2"/>
    
    <!-- Ground -->
    <g transform="translate(280, 90)">
      <line x1="0" y1="0" x2="0" y2="20" stroke="#000" stroke-width="2"/>
      <line x1="-10" y1="20" x2="10" y2="20" stroke="#000" stroke-width="2"/>
      <line x1="-7" y1="25" x2="7" y2="25" stroke="#000" stroke-width="2"/>
      <line x1="-4" y1="30" x2="4" y2="30" stroke="#000" stroke-width="2"/>
    </g>
    <line x1="280" y1="60" x2="280" y2="90" stroke="#000" stroke-width="2"/>
  </g>
  
  <!-- Circuit 2: USB Charging Output -->
  <g id="usb-charging" transform="translate(500, 80)">
    <text x="150" y="0" text-anchor="middle" font-family="Arial" font-size="16" font-weight="bold">
      مخرج USB للشحن / USB Charging Output
    </text>
    
    <!-- 12V Input -->
    <g transform="translate(0, 40)">
      <circle cx="0" cy="0" r="3" fill="#ff0000"/>
      <text x="-20" y="3" font-family="Arial" font-size="10">12V+</text>
      <circle cx="0" cy="30" r="3" fill="#000000"/>
      <text x="-20" y="33" font-family="Arial" font-size="10">GND</text>
    </g>
    
    <!-- Voltage Regulator -->
    <g transform="translate(50, 30)">
      <rect x="0" y="0" width="60" height="40" fill="#4caf50" stroke="#000" stroke-width="2"/>
      <text x="30" y="15" text-anchor="middle" font-family="Arial" font-size="10" fill="#fff">7805</text>
      <text x="30" y="30" text-anchor="middle" font-family="Arial" font-size="8" fill="#fff">5V Reg</text>
      <!-- Pins -->
      <line x1="-10" y1="10" x2="0" y2="10" stroke="#000" stroke-width="2"/>
      <line x1="30" y1="40" x2="30" y2="50" stroke="#000" stroke-width="2"/>
      <line x1="60" y1="10" x2="70" y2="10" stroke="#000" stroke-width="2"/>
      <text x="-5" y="5" font-family="Arial" font-size="8">IN</text>
      <text x="50" y="5" font-family="Arial" font-size="8">OUT</text>
      <text x="35" y="55" font-family="Arial" font-size="8">GND</text>
    </g>
    
    <!-- Capacitors -->
    <g transform="translate(30, 40)">
      <line x1="0" y1="0" x2="0" y2="20" stroke="#000" stroke-width="2"/>
      <line x1="-5" y1="5" x2="5" y2="5" stroke="#000" stroke-width="2"/>
      <line x1="-5" y1="15" x2="5" y2="15" stroke="#000" stroke-width="2"/>
      <text x="10" y="12" font-family="Arial" font-size="8">C1</text>
      <text x="10" y="22" font-family="Arial" font-size="8">100µF</text>
    </g>
    
    <g transform="translate(130, 40)">
      <line x1="0" y1="0" x2="0" y2="20" stroke="#000" stroke-width="2"/>
      <line x1="-5" y1="5" x2="5" y2="5" stroke="#000" stroke-width="2"/>
      <line x1="-5" y1="15" x2="5" y2="15" stroke="#000" stroke-width="2"/>
      <text x="10" y="12" font-family="Arial" font-size="8">C2</text>
      <text x="10" y="22" font-family="Arial" font-size="8">10µF</text>
    </g>
    
    <!-- LED Indicator -->
    <g transform="translate(170, 30)">
      <circle cx="0" cy="10" r="8" fill="#f44336" stroke="#000" stroke-width="2"/>
      <line x1="0" y1="2" x2="0" y2="18" stroke="#fff" stroke-width="1"/>
      <line x1="-8" y1="10" x2="8" y2="10" stroke="#fff" stroke-width="1"/>
      <text x="15" y="13" font-family="Arial" font-size="8">Power</text>
    </g>
    
    <!-- Resistor for LED -->
    <g transform="translate(170, 50)">
      <rect x="-10" y="0" width="20" height="8" fill="#8b7355" stroke="#000" stroke-width="1"/>
      <text x="0" y="20" text-anchor="middle" font-family="Arial" font-size="8">330Ω</text>
    </g>
    
    <!-- USB Connector -->
    <g transform="translate(220, 20)">
      <rect x="0" y="0" width="40" height="30" fill="#37474f" stroke="#000" stroke-width="2"/>
      <rect x="5" y="5" width="30" height="20" fill="#90a4ae"/>
      <text x="20" y="55" text-anchor="middle" font-family="Arial" font-size="10">USB</text>
      <!-- Pins -->
      <line x1="10" y1="10" x2="10" y2="20" stroke="#ff0000" stroke-width="2"/>
      <line x1="15" y1="10" x2="15" y2="20" stroke="#fff" stroke-width="1"/>
      <line x1="20" y1="10" x2="20" y2="20" stroke="#fff" stroke-width="1"/>
      <line x1="25" y1="10" x2="25" y2="20" stroke="#000" stroke-width="2"/>
      <text x="10" y="0" font-family="Arial" font-size="6" text-anchor="middle">5V</text>
      <text x="25" y="0" font-family="Arial" font-size="6" text-anchor="middle">GND</text>
    </g>
    
    <!-- Wiring -->
    <line x1="0" y1="40" x2="40" y2="40" stroke="#ff0000" stroke-width="2"/>
    <line x1="120" y1="40" x2="230" y2="40" stroke="#ff0000" stroke-width="2"/>
    <line x1="170" y1="40" x2="170" y2="38" stroke="#ff0000" stroke-width="2"/>
    <line x1="0" y1="70" x2="245" y2="70" stroke="#000" stroke-width="2"/>
    <line x1="30" y1="60" x2="30" y2="70" stroke="#000" stroke-width="2"/>
    <line x1="80" y1="70" x2="80" y2="80" stroke="#000" stroke-width="2"/>
    <line x1="130" y1="60" x2="130" y2="70" stroke="#000" stroke-width="2"/>
    <line x1="170" y1="58" x2="170" y2="70" stroke="#000" stroke-width="2"/>
    <line x1="245" y1="45" x2="245" y2="70" stroke="#000" stroke-width="2"/>
  </g>
  
  <!-- Circuit 3: Moisture Detector -->
  <g id="moisture-detector-circuit" transform="translate(50, 280)">
    <text x="150" y="0" text-anchor="middle" font-family="Arial" font-size="16" font-weight="bold">
      دائرة كاشف الرطوبة / Moisture Detector Circuit
    </text>
    
    <!-- Battery -->
    <g transform="translate(0, 40)">
      <line x1="0" y1="0" x2="0" y2="10" stroke="#000" stroke-width="2"/>
      <line x1="-5" y1="10" x2="5" y2="10" stroke="#000" stroke-width="4"/>
      <line x1="-3" y1="15" x2="3" y2="15" stroke="#000" stroke-width="2"/>
      <line x1="0" y1="20" x2="0" y2="30" stroke="#000" stroke-width="2"/>
      <text x="15" y="15" font-family="Arial" font-size="10">9V</text>
    </g>
    
    <!-- Switch -->
    <g transform="translate(40, 30)">
      <circle cx="0" cy="10" r="3" fill="#000"/>
      <circle cx="20" cy="10" r="3" fill="#000"/>
      <line x1="3" y1="10" x2="15" y2="2" stroke="#000" stroke-width="2"/>
      <text x="10" y="-5" text-anchor="middle" font-family="Arial" font-size="10">SW1</text>
    </g>
    
    <!-- Transistor -->
    <g transform="translate(120, 40)">
      <circle cx="0" cy="0" r="15" fill="none" stroke="#000" stroke-width="2"/>
      <line x1="-15" y1="0" x2="-5" y2="0" stroke="#000" stroke-width="2"/>
      <line x1="-5" y1="-10" x2="-5" y2="10" stroke="#000" stroke-width="2"/>
      <line x1="-5" y1="-5" x2="10" y2="-10" stroke="#000" stroke-width="2"/>
      <line x1="-5" y1="5" x2="10" y2="10" stroke="#000" stroke-width="2"/>
      <path d="M 7 7 L 10 10 L 5 10 Z" fill="#000"/>
      <text x="0" y="-25" text-anchor="middle" font-family="Arial" font-size="10">Q1</text>
      <text x="0" y="30" text-anchor="middle" font-family="Arial" font-size="8">BC547</text>
      <!-- Terminals -->
      <text x="-25" y="3" font-family="Arial" font-size="8">B</text>
      <text x="15" y="-10" font-family="Arial" font-size="8">C</text>
      <text x="15" y="13" font-family="Arial" font-size="8">E</text>
    </g>
    
    <!-- Base Resistor -->
    <g transform="translate(70, 40)">
      <rect x="0" y="-4" width="30" height="8" fill="#8b7355" stroke="#000" stroke-width="1"/>
      <text x="15" y="-10" text-anchor="middle" font-family="Arial" font-size="8">R1</text>
      <text x="15" y="15" text-anchor="middle" font-family="Arial" font-size="8">10kΩ</text>
    </g>
    
    <!-- LED -->
    <g transform="translate(130, 0)">
      <circle cx="0" cy="0" r="8" fill="#4caf50" stroke="#000" stroke-width="2"/>
      <path d="M -6 -6 L -2 -2 M -6 0 L -2 4" stroke="#000" stroke-width="1"/>
      <text x="15" y="3" font-family="Arial" font-size="8">LED</text>
    </g>
    
    <!-- LED Resistor -->
    <g transform="translate(170, 0)">
      <rect x="0" y="-4" width="30" height="8" fill="#8b7355" stroke="#000" stroke-width="1"/>
      <text x="15" y="-10" text-anchor="middle" font-family="Arial" font-size="8">R2</text>
      <text x="15" y="15" text-anchor="middle" font-family="Arial" font-size="8">220Ω</text>
    </g>
    
    <!-- Probes -->
    <g transform="translate(20, 90)">
      <line x1="0" y1="0" x2="0" y2="30" stroke="#000" stroke-width="3"/>
      <line x1="40" y1="0" x2="40" y2="30" stroke="#000" stroke-width="3"/>
      <rect x="-20" y="30" width="80" height="20" fill="#8d6e63" stroke="#000" stroke-width="2"/>
      <text x="20" y="45" text-anchor="middle" font-family="Arial" font-size="8" fill="#fff">SOIL</text>
      <text x="20" y="65" text-anchor="middle" font-family="Arial" font-size="10">مجسات</text>
      <text x="20" y="80" text-anchor="middle" font-family="Arial" font-size="10">Probes</text>
    </g>
    
    <!-- Wiring -->
    <line x1="0" y1="40" x2="40" y2="40" stroke="#ff0000" stroke-width="2"/>
    <line x1="60" y1="40" x2="70" y2="40" stroke="#ff0000" stroke-width="2"/>
    <line x1="100" y1="40" x2="105" y2="40" stroke="#ff0000" stroke-width="2"/>
    <line x1="20" y1="90" x2="20" y2="60" stroke="#ff0000" stroke-width="2"/>
    <line x1="20" y1="60" x2="80" y2="60" stroke="#ff0000" stroke-width="2"/>
    <line x1="80" y1="60" x2="80" y2="50" stroke="#ff0000" stroke-width="2"/>
    <line x1="130" y1="30" x2="130" y2="8" stroke="#ff0000" stroke-width="2"/>
    <line x1="138" y1="0" x2="170" y2="0" stroke="#ff0000" stroke-width="2"/>
    <line x1="200" y1="0" x2="220" y2="0" stroke="#ff0000" stroke-width="2"/>
    <line x1="220" y1="0" x2="220" y2="40" stroke="#ff0000" stroke-width="2"/>
    <line x1="0" y1="70" x2="0" y2="110" stroke="#000" stroke-width="2"/>
    <line x1="0" y1="110" x2="135" y2="110" stroke="#000" stroke-width="2"/>
    <line x1="135" y1="50" x2="135" y2="110" stroke="#000" stroke-width="2"/>
    <line x1="60" y1="90" x2="60" y2="110" stroke="#000" stroke-width="2"/>
  </g>
  
  <!-- Circuit 4: Hybrid System Connection -->
  <g id="hybrid-system" transform="translate(450, 350)">
    <text x="200" y="0" text-anchor="middle" font-family="Arial" font-size="16" font-weight="bold">
      توصيل النظام الهجين / Hybrid System Connection
    </text>
    
    <!-- Solar Input -->
    <g transform="translate(0, 40)">
      <rect x="0" y="0" width="60" height="30" fill="#1976d2" stroke="#000" stroke-width="2"/>
      <text x="30" y="20" text-anchor="middle" font-family="Arial" font-size="10" fill="#fff">Solar</text>
      <circle cx="70" cy="10" r="3" fill="#ff0000"/>
      <circle cx="70" cy="20" r="3" fill="#000000"/>
    </g>
    
    <!-- Wind Input -->
    <g transform="translate(0, 90)">
      <rect x="0" y="0" width="60" height="30" fill="#00897b" stroke="#000" stroke-width="2"/>
      <text x="30" y="20" text-anchor="middle" font-family="Arial" font-size="10" fill="#fff">Wind</text>
      <circle cx="70" cy="10" r="3" fill="#ff0000"/>
      <circle cx="70" cy="20" r="3" fill="#000000"/>
    </g>
    
    <!-- Hybrid Charge Controller -->
    <g transform="translate(150, 40)">
      <rect x="0" y="0" width="100" height="100" fill="#7b1fa2" stroke="#000" stroke-width="2"/>
      <text x="50" y="30" text-anchor="middle" font-family="Arial" font-size="12" fill="#fff">Hybrid</text>
      <text x="50" y="50" text-anchor="middle" font-family="Arial" font-size="12" fill="#fff">Controller</text>
      <text x="50" y="70" text-anchor="middle" font-family="Arial" font-size="10" fill="#fff">48V MPPT</text>
      <!-- Input terminals -->
      <text x="-15" y="25" font-family="Arial" font-size="8" fill="#1976d2">SOL</text>
      <text x="-15" y="75" font-family="Arial" font-size="8" fill="#00897b">WIND</text>
      <!-- Output terminals -->
      <text x="85" y="50" font-family="Arial" font-size="8" fill="#fff">BAT</text>
    </g>
    
    <!-- Battery Bank (48V) -->
    <g transform="translate(300, 60)">
      <!-- Battery 1 -->
      <rect x="0" y="0" width="40" height="20" fill="#ff5722" stroke="#000" stroke-width="2"/>
      <text x="20" y="13" text-anchor="middle" font-family="Arial" font-size="8" fill="#fff">12V</text>
      <!-- Battery 2 -->
      <rect x="50" y="0" width="40" height="20" fill="#ff5722" stroke="#000" stroke-width="2"/>
      <text x="70" y="13" text-anchor="middle" font-family="Arial" font-size="8" fill="#fff">12V</text>
      <!-- Battery 3 -->
      <rect x="0" y="30" width="40" height="20" fill="#ff5722" stroke="#000" stroke-width="2"/>
      <text x="20" y="43" text-anchor="middle" font-family="Arial" font-size="8" fill="#fff">12V</text>
      <!-- Battery 4 -->
      <rect x="50" y="30" width="40" height="20" fill="#ff5722" stroke="#000" stroke-width="2"/>
      <text x="70" y="43" text-anchor="middle" font-family="Arial" font-size="8" fill="#fff">12V</text>
      <text x="45" y="70" text-anchor="middle" font-family="Arial" font-size="10">48V Bank</text>
      <!-- Series connections -->
      <line x1="40" y1="10" x2="50" y2="10" stroke="#000" stroke-width="2"/>
      <line x1="40" y1="40" x2="50" y2="40" stroke="#000" stroke-width="2"/>
      <!-- Parallel connections -->
      <line x1="20" y1="20" x2="20" y2="30" stroke="#ff0000" stroke-width="2"/>
      <line x1="70" y1="20" x2="70" y2="30" stroke="#000" stroke-width="2"/>
    </g>
    
    <!-- DC-AC Inverter -->
    <g transform="translate(300, 160)">
      <rect x="0" y="0" width="80" height="50" fill="#e91e63" stroke="#000" stroke-width="2"/>
      <text x="40" y="20" text-anchor="middle" font-family="Arial" font-size="10" fill="#fff">Inverter</text>
      <text x="40" y="35" text-anchor="middle" font-family="Arial" font-size="8" fill="#fff">48V→220V</text>
      <path d="M 10 40 L 30 40 M 50 40 Q 60 40, 65 35 Q 70 30, 70 40" stroke="#fff" stroke-width="2" fill="none"/>
    </g>
    
    <!-- Wiring -->
    <!-- Solar to controller -->
    <line x1="70" y1="50" x2="150" y2="50" stroke="#ff0000" stroke-width="2"/>
    <line x1="70" y1="60" x2="135" y2="60" stroke="#000" stroke-width="2"/>
    <line x1="135" y1="60" x2="135" y2="65" stroke="#000" stroke-width="2"/>
    <line x1="135" y1="65" x2="150" y2="65" stroke="#000" stroke-width="2"/>
    
    <!-- Wind to controller -->
    <line x1="70" y1="100" x2="135" y2="100" stroke="#ff0000" stroke-width="2"/>
    <line x1="135" y1="100" x2="135" y2="90" stroke="#ff0000" stroke-width="2"/>
    <line x1="135" y1="90" x2="150" y2="90" stroke="#ff0000" stroke-width="2"/>
    <line x1="70" y1="110" x2="150" y2="110" stroke="#000" stroke-width="2"/>
    
    <!-- Controller to battery -->
    <line x1="250" y1="80" x2="280" y2="80" stroke="#ff0000" stroke-width="2"/>
    <line x1="280" y1="80" x2="280" y2="60" stroke="#ff0000" stroke-width="2"/>
    <line x1="280" y1="60" x2="300" y2="60" stroke="#ff0000" stroke-width="2"/>
    <line x1="250" y1="100" x2="280" y2="100" stroke="#000" stroke-width="2"/>
    <line x1="280" y1="100" x2="280" y2="120" stroke="#000" stroke-width="2"/>
    <line x1="280" y1="120" x2="390" y2="120" stroke="#000" stroke-width="2"/>
    <line x1="390" y1="120" x2="390" y2="100" stroke="#000" stroke-width="2"/>
    
    <!-- Battery to inverter -->
    <line x1="320" y1="110" x2="320" y2="160" stroke="#ff0000" stroke-width="2"/>
    <line x1="360" y1="110" x2="360" y2="160" stroke="#000" stroke-width="2"/>
  </g>
  
  <!-- Component Values Table -->
  <g id="components-table" transform="translate(50, 600)">
    <text x="200" y="0" text-anchor="middle" font-family="Arial" font-size="16" font-weight="bold">
      جدول المكونات / Components Table
    </text>
    
    <rect x="0" y="20" width="400" height="120" fill="none" stroke="#000" stroke-width="2"/>
    <!-- Header -->
    <line x1="0" y1="40" x2="400" y2="40" stroke="#000" stroke-width="1"/>
    <line x1="100" y1="20" x2="100" y2="140" stroke="#000" stroke-width="1"/>
    <line x1="200" y1="20" x2="200" y2="140" stroke="#000" stroke-width="1"/>
    <line x1="300" y1="20" x2="300" y2="140" stroke="#000" stroke-width="1"/>
    
    <text x="50" y="35" text-anchor="middle" font-family="Arial" font-size="12" font-weight="bold">المكون</text>
    <text x="150" y="35" text-anchor="middle" font-family="Arial" font-size="12" font-weight="bold">القيمة</text>
    <text x="250" y="35" text-anchor="middle" font-family="Arial" font-size="12" font-weight="bold">النوع</text>
    <text x="350" y="35" text-anchor="middle" font-family="Arial" font-size="12" font-weight="bold">ملاحظات</text>
    
    <!-- Row 1 -->
    <line x1="0" y1="60" x2="400" y2="60" stroke="#000" stroke-width="1"/>
    <text x="50" y="55" text-anchor="middle" font-family="Arial" font-size="10">Diode</text>
    <text x="150" y="55" text-anchor="middle" font-family="Arial" font-size="10">3A</text>
    <text x="250" y="55" text-anchor="middle" font-family="Arial" font-size="10">1N5408</text>
    <text x="350" y="55" text-anchor="middle" font-family="Arial" font-size="10">حماية عكسية</text>
    
    <!-- Row 2 -->
    <line x1="0" y1="80" x2="400" y2="80" stroke="#000" stroke-width="1"/>
    <text x="50" y="75" text-anchor="middle" font-family="Arial" font-size="10">Fuse</text>
    <text x="150" y="75" text-anchor="middle" font-family="Arial" font-size="10">10A</text>
    <text x="250" y="75" text-anchor="middle" font-family="Arial" font-size="10">Blade</text>
    <text x="350" y="75" text-anchor="middle" font-family="Arial" font-size="10">حماية زائدة</text>
    
    <!-- Row 3 -->
    <line x1="0" y1="100" x2="400" y2="100" stroke="#000" stroke-width="1"/>
    <text x="50" y="95" text-anchor="middle" font-family="Arial" font-size="10">Capacitor</text>
    <text x="150" y="95" text-anchor="middle" font-family="Arial" font-size="10">100µF</text>
    <text x="250" y="95" text-anchor="middle" font-family="Arial" font-size="10">Electrolytic</text>
    <text x="350" y="95" text-anchor="middle" font-family="Arial" font-size="10">25V min</text>
    
    <!-- Row 4 -->
    <line x1="0" y1="120" x2="400" y2="120" stroke="#000" stroke-width="1"/>
    <text x="50" y="115" text-anchor="middle" font-family="Arial" font-size="10">Resistor</text>
    <text x="150" y="115" text-anchor="middle" font-family="Arial" font-size="10">10kΩ</text>
    <text x="250" y="115" text-anchor="middle" font-family="Arial" font-size="10">1/4W</text>
    <text x="350" y="115" text-anchor="middle" font-family="Arial" font-size="10">±5%</text>
  </g>
  
  <!-- Safety Notes -->
  <g id="safety-notes" transform="translate(500, 620)">
    <rect x="0" y="0" width="350" height="100" fill="#fff3e0" stroke="#ff6f00" stroke-width="2" rx="5"/>
    <text x="175" y="20" text-anchor="middle" font-family="Arial" font-size="14" font-weight="bold" fill="#ff6f00">
      ⚠️ ملاحظات السلامة / Safety Notes
    </text>
    <text x="10" y="40" font-family="Arial" font-size="10" fill="#ff6f00">• افصل الطاقة قبل أي تعديل / Disconnect power before modifications</text>
    <text x="10" y="55" font-family="Arial" font-size="10" fill="#ff6f00">• استخدم فيوزات الحماية دائماً / Always use protection fuses</text>
    <text x="10" y="70" font-family="Arial" font-size="10" fill="#ff6f00">• تحقق من القطبية قبل التوصيل / Check polarity before connecting</text>
    <text x="10" y="85" font-family="Arial" font-size="10" fill="#ff6f00">• استخدم كابلات مناسبة للتيار / Use appropriate gauge wires</text>
  </g>
</svg>